<svg id="Capa_6" data-name="Capa 6" xmlns="http://www.w3.org/2000/svg" viewBox="0 0 250.25 250.25"><defs><style>.cls-1{fill:#43ab34;}.cls-2{fill:#fff;}.cls-3{fill:none;}</style></defs><circle class="cls-1" cx="89.39" cy="98.05" r="58.25"/><path class="cls-2" d="M135.41,170.09v-8c-4.58-.08-9.33-1.5-12.09-3.48l1.89-5.3a21.08,21.08,0,0,0,11.39,3.4c5.61,0,9.41-3.24,9.41-7.75,0-4.35-3.09-7-8.94-9.41-8.06-3.16-13-6.8-13-13.68,0-6.56,4.66-11.54,11.94-12.73v-8h4.9v7.67a21.06,21.06,0,0,1,10.28,2.77l-2,5.21a19.2,19.2,0,0,0-10-2.68c-6.09,0-8.38,3.63-8.38,6.8,0,4.11,2.92,6.16,9.8,9,8.15,3.32,12.26,7.43,12.26,14.47,0,6.25-4.35,12.1-12.5,13.44v8.23Z" transform="translate(-49.07 -42.03)"/><circle class="cls-2" cx="150.86" cy="142.2" r="68.25"/><circle class="cls-2" cx="150.86" cy="142.2" r="58.25"/><circle class="cls-1" cx="150.86" cy="142.2" r="58.25"/><path class="cls-2" d="M218.87,205a21.38,21.38,0,0,1-11.79,3.32,20.74,20.74,0,0,1-16.05-7c-3-3.32-5-7.91-5.69-13.6h-4.9v-3.88h4.5v-1.18c0-1.27.08-2.45.16-3.56h-4.66v-4h5.22a25,25,0,0,1,6.48-13.36,20.84,20.84,0,0,1,15.66-6.56,22.37,22.37,0,0,1,10.51,2.53l-1.58,5.22a18.17,18.17,0,0,0-8.85-2.22,13.8,13.8,0,0,0-10.44,4.35c-2.37,2.3-4,5.85-4.75,10h22.06v4H192c-.08,1-.16,2.21-.16,3.32v1.42h22.93v3.88H192.38A18.94,18.94,0,0,0,196.73,198a15,15,0,0,0,11.15,4.59,20.45,20.45,0,0,0,9.64-2.61Z" transform="translate(-49.07 -42.03)"/><path class="cls-1" d="M261.83,116.4l-.08-7.21,0-3.6,0-1.8,0-1.1-.08-1.22a16.46,16.46,0,0,0-1.12-4.75,16.71,16.71,0,0,0-2.39-4.24,17.26,17.26,0,0,0-7.77-5.71,16.9,16.9,0,0,0-3.77-.93c-.65-.09-1.3-.1-2-.14H228.18v-8.4L205.4,90.45l22.78,13.15V95.21h16c.3,0,.61,0,.91.06a7.61,7.61,0,0,1,1.77.42,8.07,8.07,0,0,1,5.29,6.91l0,.57v.71l0,1.8,0,3.61.08,7.21Z" transform="translate(-49.07 -42.03)"/><path class="cls-1" d="M87.51,203.63l.13,12.94a20.61,20.61,0,0,0,.46,4.35,17.32,17.32,0,0,0,15.56,13.36l1.1.06h16.4v8.39l22.77-13.16-22.77-13.15v8.4h-16l-.52,0a8,8,0,0,1-7.51-8.32L97,203.54Z" transform="translate(-49.07 -42.03)"/><rect class="cls-3" width="250.25" height="250.25"/></svg>