<svg id="Capa_7" data-name="Capa 7" xmlns="http://www.w3.org/2000/svg" viewBox="0 0 177.21 178.91"><defs><style>.cls-1,.cls-4{fill:#f39244;}.cls-1,.cls-3{stroke:#1d1d1b;stroke-miterlimit:10;stroke-width:6px;}.cls-2{font-size:58.35px;fill:#1d1d1b;font-family:MyriadPro-Regular, Myriad Pro;}.cls-3,.cls-5{fill:#f7eb5d;}</style></defs><circle class="cls-1" cx="88.61" cy="44.12" r="41.12"/><text class="cls-2" transform="translate(73.14 61.24)">$</text><circle class="cls-3" cx="88.61" cy="134.79" r="41.12"/><text class="cls-2" transform="translate(73.14 151.91)">€</text><path class="cls-4" d="M234.18,120.74A46.72,46.72,0,0,1,246,122.29a26.49,26.49,0,0,1,10,5.32,25.16,25.16,0,0,1,6.63,9.13,36.77,36.77,0,0,1,2.79,11.44c.67,8-.28,16.41-4,23.09a24.58,24.58,0,0,1-7.56,8.3c-.82.48-1.59,1-2.43,1.46l-1.13.53-.86.4L247,176.18c-2.28,4.66-7.11,8.87-12.78,12.16,1.42.76,2.91,1.53,4.46,2.28s3.18,1.27,4.88,1.88,3.49.93,5.36,1.31q1.41.18,2.88.33a21.07,21.07,0,0,0,3,.17l-2.49-5.79,1.09-.5,1.41-.67c1.07-.56,2.08-1.25,3.12-1.88a31.64,31.64,0,0,0,9.76-10.7,40,40,0,0,0,4.5-13.43,57.13,57.13,0,0,0,.42-13.82,44,44,0,0,0-3.36-13.65,32.43,32.43,0,0,0-8.51-11.67A33.64,33.64,0,0,0,248,115.44a53.74,53.74,0,0,0-13.82-1.84Z" transform="translate(-95.58 -62.81)"/><path class="cls-5" d="M134.2,184.77a46.67,46.67,0,0,1-11.82-1.56,26.46,26.46,0,0,1-10-5.32,25.35,25.35,0,0,1-6.63-9.12,36.82,36.82,0,0,1-2.78-11.44c-.68-8,.27-16.41,4-23.09a24.4,24.4,0,0,1,7.56-8.3c.82-.48,1.59-1,2.44-1.47l1.12-.52.86-.41,2.49,5.78c2.27-4.66,7.1-8.87,12.78-12.15q-2.13-1.15-4.46-2.29c-1.55-.67-3.18-1.26-4.89-1.87s-3.49-.93-5.36-1.31c-.93-.12-1.89-.24-2.87-.33a21.3,21.3,0,0,0-3-.17l2.49,5.78-1.09.51-1.41.67c-1.07.56-2.08,1.25-3.12,1.88a31.56,31.56,0,0,0-9.76,10.7,40.16,40.16,0,0,0-4.5,13.42A56.72,56.72,0,0,0,95.82,158a43.92,43.92,0,0,0,3.35,13.64,32.37,32.37,0,0,0,8.51,11.67,33.63,33.63,0,0,0,12.7,6.77,54.12,54.12,0,0,0,13.82,1.84Z" transform="translate(-95.58 -62.81)"/></svg>